<?xml version="1.0" ?><!DOCTYPE svg  PUBLIC '-//W3C//DTD SVG 1.1//EN'  'http://www.w3.org/Graphics/SVG/1.1/DTD/svg11.dtd'><svg enable-background="new 0 0 512 512" id="Layer_6" version="1.1" viewBox="0 0 512 512" xml:space="preserve" xmlns="http://www.w3.org/2000/svg" xmlns:xlink="http://www.w3.org/1999/xlink"><g><circle cx="256.1" cy="297.2" fill="#60ADE0" r="167.1"/><path d="M180.3,217.6c0,0-13.9,85.9,74.4,85.9s75.8-85.9,75.8-85.9H180.3z" fill="#53A1D8"/><path d="M480.3,154.1c0-37.3-30.2-67.5-67.5-67.5s-67.5,30.2-67.5,67.5c0,18.4,7.4,35.1,19.4,47.3c0,0,0,0,0,0   c10.2,11.3,6.2,32.8,6.2,32.8s7-4.2,13-6.2c5.9-2,23.2-3.4,41.7-7.6c0,0,0,0,0,0C456.7,214.5,480.3,187.1,480.3,154.1z" fill="#E5E5E5"/><path d="M481.1,144.8c0-37.3-30.2-67.5-67.5-67.5S346,107.5,346,144.8c0,18.4,7.4,35.1,19.4,47.3c0,0,0,0,0,0   c10.2,11.3,6.2,32.8,6.2,32.8s7-4.2,13-6.2c5.9-2,23.2-3.4,41.7-7.6c0,0,0,0,0,0C457.5,205.2,481.1,177.8,481.1,144.8z" fill="#62B446"/><g><defs><circle cx="256.1" cy="297.2" id="SVGID_1_" r="167.1"/></defs><clipPath id="SVGID_2_"><use overflow="visible" xlink:href="#SVGID_1_"/></clipPath><path clip-path="url(#SVGID_2_)" d="M128.3,419.6L144,359h222l17.9,63.9c0,0-49.4,50-130.4,49.7    S128.3,419.6,128.3,419.6z" fill="#488DBE"/></g><polygon fill="#FBD2AB" points="216.8,306.5 216.8,286.6 255.6,286.6 255.6,328.2 236.2,328.2  "/><polygon fill="#94C9E3" points="248.4,325.3 217,304.3 197.4,308.2 247.4,415  "/><polygon fill="#F26A45" points="255.6,324.3 245.3,324.3 237.1,334.7 246.4,344.4 239.3,386.9 255.6,419.5  "/><g><defs><circle cx="256.1" cy="297.2" id="SVGID_3_" r="167.1"/></defs><clipPath id="SVGID_4_"><use overflow="visible" xlink:href="#SVGID_3_"/></clipPath><path clip-path="url(#SVGID_4_)" d="M255.6,465.9v-40l-55.7-118.3c0,0-58.4,10.7-58.4,65.1s1.7,77.9,1.7,77.9    S205.8,468,255.6,465.9z" fill="#FFFFFF"/></g><polygon fill="#E4E4E4" points="255.6,430.4 193.7,368.2 206.8,346 190.5,337.6 199.9,307.7 255.6,414.5  "/><path d="M255.6,137.5v133.2c0,0-50.7,10.9-65.6-24.3c-14.9-35.2,0-98,0-98S189.9,110.8,255.6,137.5z" fill="#FBD2AB"/><path d="M190.4,172.2c0,0,0,30.9,0,53.6s21.9,35.7,21.9,35.7s3.8-10.5,16.6-19.8s26.7-7.8,26.7-7.8v60.4   c0,0-7.8,0-18.6,0s-30.9-6-43.6-22.3c-12.7-16.3-13.4-26.9-13.4-53.3s0-46.5,0-46.5H190.4z" fill="#E9C09D"/><path d="M181.2,208.3c0,0-16.9,0.7-16.9-15.9s16.9-15.5,16.9-15.5V208.3z" fill="#FBD2AB"/><path d="M255.6,222.2c0,0-10.5,0-12.6,0c-2.1,0-4.2-1.1-1.4-8.2s8.2-20,9.8-22.9c1.5-2.9,4.2-4.2,4.2-4.2V222.2z" fill="#FBDFC4"/><circle cx="225.3" cy="181.9" fill="#383B3B" r="8.4"/><path d="M255.6,257.6H237c0,0,0.1,7.1,6.4,13c6.3,5.9,12.3,5.3,12.3,5.3V257.6z" fill="#383B3B"/><polygon fill="#FFFFFF" points="255.6,252.4 237.4,252.4 237,257.6 255.6,257.6  "/><path d="M243.6,270.8c0,0,1.1-1.2,4.6-3.1c3.5-1.9,7.5-2.1,7.5-2.1v10.3C255.6,275.9,250.1,276.5,243.6,270.8z" fill="#F26A45"/><polygon fill="#DEBA97" points="294.3,306.5 294.3,286.6 255.5,286.6 255.5,328.2 274.9,328.2  "/><polygon fill="#8FC1DB" points="262.7,325.3 294.1,304.3 313.7,308.2 263.7,415  "/><polygon fill="#E5613D" points="255.5,324.3 265.8,324.3 274,334.7 264.7,344.4 271.8,386.9 255.5,419.5  "/><g><defs><circle cx="256.1" cy="297.2" id="SVGID_5_" r="167.1"/></defs><clipPath id="SVGID_6_"><use overflow="visible" xlink:href="#SVGID_5_"/></clipPath><path clip-path="url(#SVGID_6_)" d="M255.5,465.9v-40l55.7-118.3c0,0,58.4,10.7,58.4,65.1s-1.7,77.9-1.7,77.9    S305.3,468,255.5,465.9z" fill="#F3F3F3"/></g><polygon fill="#D8D9D8" points="255.5,430.4 317.5,368.2 304.3,346 320.6,337.6 311.2,307.7 255.5,414.5  "/><path d="M255.5,137.5v133.2c0,0,50.7,10.9,65.6-24.3c14.9-35.2,0-98,0-98S321.2,110.8,255.5,137.5z" fill="#EEC7A2"/><path d="M320.7,172.2c0,0,0,30.9,0,53.6s-21.9,35.7-21.9,35.7s-3.8-10.5-16.6-19.8s-26.7-7.8-26.7-7.8v60.4   c0,0,7.8,0,18.6,0s30.9-6,43.6-22.3c12.7-16.3,13.4-26.9,13.4-53.3s0-46.5,0-46.5H320.7z" fill="#DEB696"/><path d="M329.9,208.3c0,0,16.9,0.7,16.9-15.9s-16.9-15.5-16.9-15.5V208.3z" fill="#E6C29D"/><path d="M255.5,222.2c0,0,10.5,0,12.6,0c2.1,0,4.2-1.1,1.4-8.2c-2.8-7.1-8.2-20-9.8-22.9c-1.5-2.9-4.2-4.2-4.2-4.2   V222.2z" fill="#FBD2AB"/><circle cx="285.8" cy="181.9" fill="#383B3B" r="8.4"/><path d="M255.5,257.6h18.6c0,0-0.1,7.1-6.4,13c-6.3,5.9-12.3,5.3-12.3,5.3V257.6z" fill="#383B3B"/><polygon fill="#F3F3F3" points="255.5,252.4 273.7,252.4 274.1,257.6 255.5,257.6  "/><path d="M267.5,270.8c0,0-1.1-1.2-4.6-3.1c-3.5-1.9-7.5-2.1-7.5-2.1v10.3C255.5,275.9,261,276.5,267.5,270.8z" fill="#EC6440"/><rect fill="#FFFFFF" height="7.1" width="90.1" x="368.3" y="127.5"/><rect fill="#FFFFFF" height="7.1" width="90.1" x="368.3" y="143.2"/><rect fill="#FFFFFF" height="7.1" width="59.9" x="368.3" y="158.9"/><path d="M180.3,177.1c0,0,5.9,0,8.8,0s8-5.9,8-10.7c0-4.9,0-16.5,0-20.8c0-4.3,4-10.6,17.5-10.6   s31.1,11.3,48.6,14.5c17.5,3.2,25.7,1.5,25.7,1.5s-4.7-2.7-10.1-6.8s-7.5-9.2-7.5-9.2s23,0,29.6,0s13.3,4.3,13.3,18.8   s2.9,23.3,8.8,23.3s7.7,0,7.7,0s0-19.7,0-28.9s-3.5-26.5-23-43.8s-48-16.3-48-16.3s0.7-2.2,0.8-7.1s-1.5-8.1-1.5-8.1   s-3.5,5.4-7.3,9.5c-3.8,4-7.8,5.4-7.8,5.4s-0.3-5.4-7.4-9.4c-7.1-3.9-16.1-2.4-16.1-2.4s5.6,5.4,7.1,8.4c1.5,2.9,2.1,7.1,2.1,7.1   S205.1,95,189.3,120S180.3,177.1,180.3,177.1z" fill="#5D3918"/><polygon fill="#E6C29D" points="242,222.2 255.1,234.2 255.1,222.2  "/><path d="M297.4,398.4c0,0,0,13,0,19s5.2,11.3,14.9,11.3S329,425,329,415.9s0-17.5,0-17.5H297.4z" fill="#D8D9D8"/><rect fill="#6FB744" height="18.7" width="6.4" x="304.2" y="388"/><rect fill="#F26A45" height="18.7" width="6.4" x="315.9" y="388"/></g></svg>