<svg width="128" height="128" xmlns="http://www.w3.org/2000/svg">

 <g>
  <title>background</title>
  <rect fill="none" id="canvas_background" height="402" width="582" y="-1" x="-1"/>
 </g>
 <g>
  <title>Layer 1</title>
  <path opacity="0.5" fill="#bde5ec" id="svg_4" d="m34.2,55.8c3,3.1 7.2,2 8.7,1.1c2.2,-1.3 6.5,-2.8 8.7,-6.4c4,-6.7 4.7,-13.8 1.1,-18.2c-6.4,-8 -16.5,-4.6 -20.5,2.1c-2.8,5.1 -0.9,18.3 2,21.4z" class="st13"/>
  <path opacity="0.5" fill="#bde5ec" id="svg_5" d="m35.5,34.9c0,2.2 -1.7,3.9 -3.9,3.9s-3.9,-1.7 -3.9,-3.9" class="st13"/>
  <path opacity="0.5" fill="#bde5ec" id="svg_6" d="m49.6,47.2c-1.5,1.5 -1.5,4 0,5.5c1.5,1.5 4,1.5 5.5,0c0,0 3.6,-9.1 2.2,-15.3c-1.4,-6.3 -6.1,-6.6 -6.1,-6.6s-2.3,-5.1 -9,-4.6c-6.6,0.5 -11.2,4.6 -11.2,4.6c-1.5,1.5 -1.5,4 0,5.5c0.8,0.8 1.8,1.1 2.8,1.1c1,0 2,-0.4 2.8,-1.1" class="st13"/>
  <path opacity="0.5" fill="#bde5ec" id="svg_8" d="m90.8,55.8c-3,3.1 -7.2,2 -8.7,1.1c-2.2,-1.3 -6.5,-2.8 -8.7,-6.4c-4,-6.7 -4.7,-13.8 -1.1,-18.2c6.4,-8 16.5,-4.6 20.5,2.1c2.8,5.1 0.9,18.3 -2,21.4z" class="st13"/>
  <path opacity="0.5" fill="#bde5ec" id="svg_9" d="m89.5,34.9c0,2.2 1.7,3.9 3.9,3.9c2.2,0 3.9,-1.7 3.9,-3.9" class="st13"/>
  <path opacity="0.5" fill="#bde5ec" id="svg_10" d="m75.4,47.2c1.5,1.5 1.5,4 0,5.5c-1.5,1.5 -4,1.5 -5.5,0c0,0 -3.6,-9.1 -2.2,-15.3c1.4,-6.3 6.1,-6.6 6.1,-6.6s2.3,-5.1 9,-4.6c6.6,0.5 11.2,4.6 11.2,4.6c1.5,1.5 1.5,4 0,5.5c-0.8,0.8 -1.8,1.1 -2.8,1.1s-2,-0.4 -2.8,-1.1" class="st13"/>
  <circle opacity="0.5" fill="#bde5ec" id="svg_11" r="9.1" cy="29.6" cx="55.7" class="st13"/>
  <path opacity="0.5" fill="#bde5ec" id="svg_12" d="m88,54.9l0,10.9l9,11.5l-3.5,39.7l-64.4,0l2.5,-47.2l11.4,-8.2l2.1,-12.1l6.5,-0.8l5.6,9.3c1.5,2.5 4.1,4.3 7,4.7l0,0c4.3,0.6 8.5,-1.5 10.4,-5.4l3.9,-7.8l9.5,5.4z" class="st13"/>
  <path fill="#bde5ec" id="svg_14" d="m107.5,107.8c1.7,0.5 5.4,1.4 8.4,2.1c2.8,0.7 5,2.8 5.8,5.5l3.8,12.5l-49,0l3.4,-12.6c0.7,-2.7 2.9,-4.9 5.6,-5.7l7.8,-2.3l14.2,0.5z" class="st13"/>
  <path fill="#bde5ec" id="svg_15" d="m106.5,100.2l1,7.6c0,0 -8.7,8.8 -14.2,-0.3c2.7,-7.3 0.5,-11.7 0.5,-11.7l0.4,-4.3l7.7,0.9l4.6,7.8z" class="st13"/>
  <path fill="#bde5ec" id="svg_16" d="m111.7,100.3c-3.3,3.5 -8,2.2 -9.7,1.3c-2.4,-1.4 -7.3,-3.1 -9.7,-7.1c-4.5,-7.5 -5.2,-15.4 -1.3,-20.4c7.2,-8.9 18.4,-5.1 22.8,2.4c3.3,5.6 1.2,20.3 -2.1,23.8z" class="st13"/>
  <path fill="#bde5ec" id="svg_17" d="m98.5,90.8c0,0 -3.6,1.3 -3.6,-1.8c0.1,-3.1 4.2,-6.5 5.4,-1.8" class="st13"/>
  <path fill="#bde5ec" id="svg_18" d="m100.4,78.1c0,5.3 4.3,9.7 9.7,9.7c5.3,0 9.7,-4.3 9.7,-9.7" class="st13"/>
  <path fill="#bde5ec" id="svg_19" d="m111.5,81.3c3,0 5.4,-2.4 5.4,-5.4s-2.4,-5.4 -5.4,-5.4" class="st13"/>
  <path fill="#bde5ec" id="svg_20" d="m84,106.6c4.3,3 10.1,1.9 13.1,-2.4s1.9,-10.1 -2.4,-13.1" class="st13"/>
  <path fill="#bde5ec" id="svg_21" d="m82.1,113.4c0,0 6.6,-27.6 7.1,-33.3c0.5,-5.8 13.3,3.1 13.3,3.1l0,31.8" class="st13"/>
  <path fill="#bde5ec" id="svg_23" d="m20.2,106.5c-1.8,0.5 -5.7,1.5 -8.9,2.3c-3,0.7 -5.3,3 -6.2,5.9l-4,13.4l52.2,0l-3.6,-13.4c-0.8,-2.9 -3,-5.2 -6,-6.1l-8.4,-2.4l-15.1,0.3z" class="st13"/>
  <path fill="#bde5ec" id="svg_24" d="m21.3,98.4l-1,8.1c0,0 9.3,9.3 15.1,-0.3c-2.8,-7.8 -0.5,-12.5 -0.5,-12.5l-0.5,-4.7l-8.2,1l-4.9,8.4z" class="st13"/>
  <path fill="#bde5ec" id="svg_25" d="m15.7,98.5c3.5,3.7 8.5,2.4 10.3,1.3c2.6,-1.5 7.8,-3.3 10.4,-7.6c4.8,-7.9 5.6,-16.4 1.4,-21.6c-7.6,-9.5 -19.6,-5.4 -24.3,2.5c-3.5,6 -1.3,21.7 2.2,25.4z" class="st13"/>
  <path fill="#bde5ec" id="svg_26" d="m29.8,88.4c0,0 3.9,1.4 3.8,-1.9c-0.1,-3.3 -4.4,-7 -5.7,-1.9" class="st13"/>
  <path fill="#bde5ec" id="svg_27" d="m17.3,73.6c0,2.6 -2.1,4.6 -4.6,4.6s-4.7,-2 -4.7,-4.6" class="st13"/>
  <path fill="#bde5ec" id="svg_28" d="m18.5,75.2c-1.8,1.8 -4.7,1.8 -6.5,0s-1.8,-4.7 0,-6.5" class="st13"/>
  <path fill="#bde5ec" id="svg_29" d="m40.5,94.8c-1.8,1.8 -4.7,1.8 -6.5,0s-1.8,-4.7 0,-6.5" class="st13"/>
  <path fill="#ff8748" id="svg_30" d="m58.2,104.7c-2,0.5 -6.2,1.6 -9.7,2.5c-3.2,0.8 -5.8,3.2 -6.7,6.4l-4.3,14.4l56.5,0l-4,-14.5c-0.9,-3.2 -3.3,-5.6 -6.4,-6.6l-9,-2.6l-16.4,0.4z" class="st12"/>
  <path fill="#ffc298" id="svg_31" d="m59.4,96l-1.1,8.7c0,0 10.1,10.1 16.3,-0.3c-3.1,-8.4 -0.6,-13.5 -0.6,-13.5l-0.4,-5l-8.9,1l-5.3,9.1z" class="st1"/>
  <path fill="#e1927a" id="svg_32" d="m71,89.2c0,-0.2 2.6,-1.8 2.6,-2l-0.1,-1.3l-8.9,1l-5.2,9.1l-0.8,6.1c2.5,0.2 5.7,-1.2 6.9,-1.8c3.9,-1.9 5.2,-5.5 5.5,-11.1z" class="st2"/>
  <path fill="#ffc298" id="svg_33" d="m53.7,95.9c4.1,4.3 9.9,2.8 12,1.6c3,-1.8 7.8,-5.8 8.9,-11.6c1,-5.8 1,-10.7 -3.1,-16.1c-4.1,-5.4 -19.9,-4.3 -20.4,-3.4c-4.2,6.8 -1.5,25.2 2.6,29.5z" class="st1"/>
  <path fill="#892e1d" id="svg_34" d="m43.8,63.1c0,0 -1.9,7.1 5.4,9.8c7.1,2.6 14.8,-2.7 14.8,-2.7s0,11.5 10.1,20.6c8.7,-2.2 13.3,-23.6 -1.4,-30.9c-15.3,-7.6 -24,5.1 -24,5.1l-4.9,-1.9z" class="st4"/>
  <path fill="#ffc298" id="svg_35" d="m68.6,85.2c0,0 4.2,1.5 4.1,-2.1c-0.1,-3.6 -4.8,-7.5 -6.2,-2" class="st1"/>
  <path fill="#892e1d" id="svg_36" d="m50.1,65.6c-2.1,0 -3.8,-1.7 -3.8,-3.8c0,-2.1 1.7,-3.8 3.8,-3.8" class="st4"/>
  <path fill="#e44450" id="svg_37" d="m98.3,11.7l-19.5,33.7c-1.4,2.5 0.4,5.6 3.2,5.6l39,0c2.9,0 4.7,-3.1 3.2,-5.6l-19.5,-33.7c-1.4,-2.5 -4.9,-2.5 -6.4,0z" class="st25"/>
  <polygon fill="#ffffff" id="svg_39" points="105,21.5 103,36.4 100.1,36.4 98,21.5   " class="st37"/>
  <circle fill="#ffffff" id="svg_40" r="2.5" cy="42.7" cx="101.5" class="st37"/>
 </g>
</svg>