<?xml version="1.0" encoding="UTF-8"?>
<svg xmlns="http://www.w3.org/2000/svg" xmlns:xlink="http://www.w3.org/1999/xlink" width="48pt" height="48pt" viewBox="0 0 48 48" version="1.1">
<g id="surface1">
<path style=" stroke:none;fill-rule:nonzero;fill:rgb(38.431373%,76.862745%,76.470588%);fill-opacity:1;" d="M 3 15 L 8.25 15 L 12 10.5 L 13.5 15 L 15.75 18 L 14.25 21.75 L 12.75 24 L 10.5 24 L 10.5 25.5 L 12.75 28.5 L 18.75 30 L 14.25 40.5 L 12 41.25 L 12 33 L 8.25 29.25 L 5.25 19.5 L 2.25 19.5 L 2.25 16.5 Z M 3 15 "/>
<path style=" stroke:none;fill-rule:nonzero;fill:rgb(38.431373%,76.862745%,76.470588%);fill-opacity:1;" d="M 23.25 17.25 L 21.75 19.5 L 19.5 21 L 22.5 22.5 L 18.75 24.75 L 20.25 27 L 24 27.75 L 24 30.75 L 25.5 33 L 27 33 L 28.5 28.5 L 28.5 25.5 L 30.75 25.5 L 32.25 27.75 L 34.5 25.5 L 35.25 27 L 35.25 29.25 L 41.25 30.75 L 39 27.75 L 38.25 25.5 L 40.5 23.25 L 40.5 19.5 L 45.75 18 L 45.75 15.75 L 38.25 12 L 36 12 L 27.75 16.5 L 25.5 15 L 23.25 15 Z M 23.25 17.25 "/>
<path style=" stroke:none;fill-rule:nonzero;fill:rgb(38.431373%,76.862745%,76.470588%);fill-opacity:1;" d="M 37.5 37.5 L 37.5 35.25 L 39.75 33.75 L 42.75 33.75 L 44.25 36 L 44.25 38.25 L 40.5 36.75 Z M 37.5 37.5 "/>
<path style=" stroke:none;fill-rule:nonzero;fill:rgb(38.431373%,76.862745%,76.470588%);fill-opacity:1;" d="M 17.25 7.5 L 21.75 7.5 L 21.75 11.25 L 18.75 15.75 L 16.5 12 L 15 11.25 L 15 7.5 Z M 17.25 7.5 "/>
<path style=" stroke:none;fill-rule:nonzero;fill:rgb(22.745098%,25.882353%,28.627451%);fill-opacity:1;" d="M 36.027344 21.949219 C 36.011719 21.890625 34.4375 16.304688 30.3125 13.359375 C 25.386719 9.839844 18.21875 11.222656 18.148438 11.234375 L 17.851562 9.765625 C 18.171875 9.703125 25.734375 8.246094 31.183594 12.140625 C 35.75 15.402344 37.40625 21.304688 37.472656 21.554688 Z M 36.027344 21.949219 "/>
<path style=" stroke:none;fill-rule:nonzero;fill:rgb(22.745098%,25.882353%,28.627451%);fill-opacity:1;" d="M 36.21875 22.28125 C 36.183594 22.246094 32.539062 18.707031 25.425781 17.996094 C 18.230469 17.273438 13.097656 19.417969 13.042969 19.4375 L 12.453125 18.0625 C 12.675781 17.964844 17.96875 15.742188 25.574219 16.503906 C 33.253906 17.273438 37.121094 21.058594 37.28125 21.21875 Z M 36.21875 22.28125 "/>
<path style=" stroke:none;fill-rule:nonzero;fill:rgb(22.745098%,25.882353%,28.627451%);fill-opacity:1;" d="M 42.585938 35.71875 L 41.414062 34.78125 C 41.445312 34.742188 44.671875 30.628906 43.539062 27.238281 C 42.203125 23.230469 36.710938 22.5 36.65625 22.492188 L 36.566406 22.476562 C 36.527344 22.46875 32.339844 21.488281 25.761719 23.953125 C 20.066406 26.089844 16.421875 31.839844 16.386719 31.898438 L 15.113281 31.101562 C 15.273438 30.847656 19.070312 24.859375 25.238281 22.546875 C 31.992188 20.015625 36.363281 20.890625 36.886719 21.011719 C 37.5 21.097656 43.382812 22.027344 44.960938 26.761719 C 46.351562 30.933594 42.742188 35.523438 42.585938 35.71875 Z M 42.585938 35.71875 "/>
</g>
</svg>
